 <!DOCTYPE svg PUBLIC "-//W3C//DTD SVG 1.1//EN" "http://www.w3.org/Graphics/SVG/1.1/DTD/svg11.dtd">
<svg id="e106b807-45cb-4ead-a64e-d92572e06d5d" data-name="Layer 1" xmlns="http://www.w3.org/2000/svg" width="865.76" height="682.89" viewBox="0 0 865.76 682.89">
<defs>
<style xmlns="http://www.w3.org/1999/xhtml">*, ::after, ::before { box-sizing: border-box; }
img, svg { vertical-align: middle; }
</style>
<style xmlns="http://www.w3.org/1999/xhtml">*, body, html { -webkit-font-smoothing: antialiased; }
img, svg { max-width: 100%; }
</style>
</defs>
<path d="M134.16,663.21s-100-80.74-88.25-165.51,107.86-14.13,131.39-90.84S114.09,229.94,192.76,160,344,156.57,393,142.44,438.12,19.31,549.9,17.29s204.44,66.61,163,263.42,86,219,103.68,289.65-25.8,95.28-25.8,95.28Z" fill="#fe705d" data-primary="true"/>
<path d="M134.16,663.21s-100-80.74-88.25-165.51,107.86-14.13,131.39-90.84S114.09,229.94,192.76,160,344,156.57,393,142.44,438.12,19.31,549.9,17.29s204.44,66.61,163,263.42,86,219,103.68,289.65-25.8,95.28-25.8,95.28Z" fill="#fff" opacity="0.7"/>
<rect x="394.92" y="32.52" width="225.79" height="408.44" rx="2.28" fill="#fe705d" data-primary="true"/>
<rect x="394.92" y="32.52" width="225.79" height="408.44" rx="2.28" fill="#fff" opacity="0.5"/>
<rect x="400.56" y="42.61" width="216.22" height="378.52" rx="6.85" fill="#fe705d" opacity="0.19" data-primary="true"/>
<rect x="426.12" y="154.49" width="203.09" height="224.51" rx="1.93" fill="#fe705d" data-primary="true"/>
<rect x="426.12" y="154.49" width="203.09" height="224.51" rx="1.93" fill="#fff" opacity="0.46"/>
<path d="M407.33,42.61H610a6.76,6.76,0,0,1,6.76,6.76V98.93a0,0,0,0,1,0,0H400.56a0,0,0,0,1,0,0V49.38A6.76,6.76,0,0,1,407.33,42.61Z" fill="#fff"/>
<rect x="420.59" y="110.42" width="155.73" height="29.42" rx="2.23" fill="#fff"/>
<circle cx="587.88" cy="126.05" r="2.42" fill="#fe705d" opacity="0.19" data-primary="true"/>
<circle cx="597.78" cy="119.37" r="2.42" fill="#fe705d" opacity="0.19" data-primary="true"/>
<circle cx="597.78" cy="130.88" r="2.42" fill="#fe705d" opacity="0.19" data-primary="true"/>
<g opacity="0.19">
<polygon points="589.41 124.24 589.28 124.02 595.6 120.4 595.73 120.62 589.41 124.24" fill="#fe705d" data-primary="true"/>
</g>
<g opacity="0.19">
<polygon points="595.3 130.99 589.89 127.36 590.03 127.15 595.44 130.78 595.3 130.99" fill="#fe705d" data-primary="true"/>
</g>
<path d="M451.34,192.79a5.92,5.92,0,0,1-2.53-2,5.19,5.19,0,0,1-1-3H452a2.62,2.62,0,0,0,.84,1.87,3,3,0,0,0,2.06.68,3.17,3.17,0,0,0,2.11-.64,2.1,2.1,0,0,0,.77-1.69,2,2,0,0,0-.52-1.4,3.74,3.74,0,0,0-1.3-.86c-.52-.21-1.24-.44-2.15-.7a22.13,22.13,0,0,1-3-1.08,5.26,5.26,0,0,1-2-1.62,4.58,4.58,0,0,1-.84-2.89,5.22,5.22,0,0,1,.85-3,5.42,5.42,0,0,1,2.39-1.93,8.62,8.62,0,0,1,3.51-.67,7.58,7.58,0,0,1,4.8,1.44,5.33,5.33,0,0,1,2.05,4h-4.22a2.22,2.22,0,0,0-.84-1.63,3.14,3.14,0,0,0-2.07-.64,2.65,2.65,0,0,0-1.79.57,2.11,2.11,0,0,0-.68,1.68,1.72,1.72,0,0,0,.51,1.27,3.87,3.87,0,0,0,1.26.82c.5.21,1.21.45,2.13.73a22.7,22.7,0,0,1,3,1.09,5.61,5.61,0,0,1,2,1.65,4.61,4.61,0,0,1,.84,2.88,5.36,5.36,0,0,1-.79,2.84,5.61,5.61,0,0,1-2.33,2.1,7.94,7.94,0,0,1-3.64.78A9.22,9.22,0,0,1,451.34,192.79Z" fill="#2f2e41" data-secondary="true"/>
<path d="M476.65,178.63a5.28,5.28,0,0,1,2.09,2.22,7.53,7.53,0,0,1,.76,3.52v8.91h-3.84V184.9a4,4,0,0,0-.9-2.79,3.25,3.25,0,0,0-2.47-1,3.33,3.33,0,0,0-2.51,1,3.92,3.92,0,0,0-.91,2.79v8.38H465V173h3.84v7a5,5,0,0,1,2-1.55,6.58,6.58,0,0,1,2.74-.56A6.21,6.21,0,0,1,476.65,178.63Z" fill="#2f2e41" data-secondary="true"/>
<path d="M483.07,181.55a6.78,6.78,0,0,1,2.5-2.74,6.62,6.62,0,0,1,3.52-1,6.15,6.15,0,0,1,3,.69,6.08,6.08,0,0,1,2,1.72V178.1H498v15.18H494.1v-2.22a5.72,5.72,0,0,1-2,1.77,6.33,6.33,0,0,1-3,.7,6.42,6.42,0,0,1-3.49-1,6.9,6.9,0,0,1-2.5-2.78,9,9,0,0,1-.92-4.13A8.82,8.82,0,0,1,483.07,181.55Zm10.48,1.74a3.76,3.76,0,0,0-1.48-1.53,3.9,3.9,0,0,0-2-.54,3.83,3.83,0,0,0-3.43,2,4.72,4.72,0,0,0-.57,2.37,4.84,4.84,0,0,0,.57,2.4,4,4,0,0,0,1.48,1.58,3.79,3.79,0,0,0,1.95.55,3.9,3.9,0,0,0,2-.54,3.76,3.76,0,0,0,1.48-1.53,5.51,5.51,0,0,0,0-4.8Z" fill="#2f2e41" data-secondary="true"/>
<path d="M507.49,178.57a5.31,5.31,0,0,1,2.72-.69v4h-1a3.87,3.87,0,0,0-2.73.85,3.91,3.91,0,0,0-.92,3v7.56h-3.83V178.1h3.83v2.36A5.32,5.32,0,0,1,507.49,178.57Z" fill="#2f2e41" data-secondary="true"/>
<path d="M526.79,186.84h-11.1a3.76,3.76,0,0,0,1.16,2.58,3.53,3.53,0,0,0,2.49.93,3.13,3.13,0,0,0,3-1.84h4.14a7,7,0,0,1-2.52,3.61,7.39,7.39,0,0,1-4.58,1.41,7.9,7.9,0,0,1-3.93-1,6.71,6.71,0,0,1-2.71-2.75,8.44,8.44,0,0,1-1-4.11,8.61,8.61,0,0,1,1-4.14,6.76,6.76,0,0,1,2.69-2.74,8.62,8.62,0,0,1,7.85,0,6.65,6.65,0,0,1,2.66,2.65,8,8,0,0,1,.94,3.93A9.41,9.41,0,0,1,526.79,186.84Zm-3.86-2.57a3.05,3.05,0,0,0-1.07-2.37,3.78,3.78,0,0,0-2.55-.9,3.47,3.47,0,0,0-2.4.87,3.78,3.78,0,0,0-1.19,2.4Z" fill="#2f2e41" data-secondary="true"/>
<circle cx="465.03" cy="248.59" r="21.9" fill="#fff"/>
<circle cx="529.71" cy="248.59" r="21.9" fill="#fff"/>
<circle cx="590.3" cy="248.59" r="21.9" fill="#fff"/>
<circle cx="465.03" cy="313.73" r="21.9" fill="#fff"/>
<circle cx="529.71" cy="313.73" r="21.9" fill="#fff"/>
<circle cx="592.67" cy="311.41" r="21.9" fill="#fff"/>
<polyline points="438.56 68.15 430.96 75.75 438.56 84.03" fill="none" stroke="#0071f2" stroke-miterlimit="10" opacity="0.2"/>
<rect x="462.9" y="67.7" width="94.59" height="13.68" rx="4.24" fill="#fe705d" opacity="0.19" data-primary="true"/>
<circle cx="588.58" cy="67.74" r="1.17" fill="#fe705d" opacity="0.19" data-primary="true"/>
<circle cx="588.58" cy="74.54" r="1.17" fill="#fe705d" opacity="0.19" data-primary="true"/>
<circle cx="588.58" cy="82.65" r="1.17" fill="#fe705d" opacity="0.19" data-primary="true"/>
<g opacity="0.6">
<path d="M476.17,248a10.93,10.93,0,0,0-21.84-.2v.48a10.78,10.78,0,0,0,1.52,5.61l-2,5.82L460,257.8a10.92,10.92,0,0,0,16.21-9.49A1.41,1.41,0,0,0,476.17,248Zm-10.92,9.4a9.15,9.15,0,0,1-5.07-1.51L456.65,257l1.14-3.38a9.12,9.12,0,0,1-1.74-5.35,6.61,6.61,0,0,1,0-.89,9.2,9.2,0,0,1,18.31.18v.71A9.13,9.13,0,0,1,465.25,257.42Z" fill="#fe705d" fill-rule="evenodd" data-primary="true"/>
<path d="M470.26,250.49c-.28-.14-1.58-.78-1.84-.87s-.41-.13-.6.14a12.1,12.1,0,0,1-.85,1,.44.44,0,0,1-.58.07,7,7,0,0,1-2.15-1.32,7.76,7.76,0,0,1-1.49-1.84.4.4,0,0,1,.1-.54h0c.13-.12.27-.31.4-.46l.11-.14a3.07,3.07,0,0,0,.17-.31.55.55,0,0,0,0-.47c-.07-.13-.61-1.44-.83-2s-.45-.44-.61-.44h-.51a1,1,0,0,0-.72.34,2.94,2.94,0,0,0-.93,2.21,3.51,3.51,0,0,0,.13.91,5.88,5.88,0,0,0,1,1.84,11.07,11.07,0,0,0,4.57,4.06c2.73,1,2.73.69,3.23.65a2.66,2.66,0,0,0,1.8-1.26,2.3,2.3,0,0,0,.16-1.27A1.42,1.42,0,0,0,470.26,250.49Z" fill="#fe705d" fill-rule="evenodd" data-primary="true"/>
</g>
<path d="M526.62,326h4.93V313.63H535l.36-4.15h-3.82v-2.36c0-1,.21-1.37,1.15-1.37h2.67v-4.3H532c-3.68,0-5.33,1.63-5.33,4.73v3.3H524v4.2h2.58Z" fill="#fe705d" opacity="0.6" data-primary="true"/>
<g opacity="0.6">
<path d="M465,304.62c3,0,3.32,0,4.5.07a6.13,6.13,0,0,1,2,.38,3.73,3.73,0,0,1,2.1,2.11,6.41,6.41,0,0,1,.39,2c.05,1.18.06,1.52.06,4.5s0,3.33-.06,4.5a5.9,5.9,0,0,1-.39,2,3.49,3.49,0,0,1-.83,1.29,3.59,3.59,0,0,1-1.27.83,6.13,6.13,0,0,1-2,.38c-1.18,0-1.53.06-4.5.06s-3.32,0-4.5-.06a6.13,6.13,0,0,1-2-.38,3.71,3.71,0,0,1-2.11-2.12,6.13,6.13,0,0,1-.38-2c-.05-1.17-.07-1.53-.07-4.5s0-3.32.07-4.5a6.13,6.13,0,0,1,.38-2,3.77,3.77,0,0,1,2.11-2.11,6.13,6.13,0,0,1,2-.38c1.18-.06,1.53-.07,4.5-.07m0-2c-3,0-3.41,0-4.59.08a8.09,8.09,0,0,0-2.71.51,5.73,5.73,0,0,0-3.25,3.26,8,8,0,0,0-.52,2.7c0,1.19-.06,1.56-.06,4.59s0,3.4.06,4.59a8.29,8.29,0,0,0,.52,2.7,5.4,5.4,0,0,0,1.29,2,5.33,5.33,0,0,0,2,1.28,7.86,7.86,0,0,0,2.71.52c1.18.06,1.57.07,4.59.07s3.4,0,4.59-.07a7.85,7.85,0,0,0,2.7-.52,5.25,5.25,0,0,0,2-1.28,5.4,5.4,0,0,0,1.29-2,8.62,8.62,0,0,0,.52-2.7c0-1.19.06-1.57.06-4.59s0-3.4-.06-4.59a8.57,8.57,0,0,0-.52-2.7,5.75,5.75,0,0,0-3.26-3.26,8.08,8.08,0,0,0-2.7-.51c-1.19-.06-1.57-.08-4.59-.08" fill="#fe705d" data-primary="true"/>
<path d="M465,308a5.72,5.72,0,1,0,5.72,5.71A5.71,5.71,0,0,0,465,308h0m0,9.42a3.71,3.71,0,1,1,3.71-3.71,3.71,3.71,0,0,1-3.71,3.71h0" fill="#fe705d" data-primary="true"/>
<path d="M472.31,307.8a1.34,1.34,0,1,1-2.68,0,1.33,1.33,0,0,1,1.33-1.34h0a1.34,1.34,0,0,1,1.34,1.32" fill="#fe705d" data-primary="true"/>
</g>
<path d="M579.47,255.38a12.63,12.63,0,0,0,19.44-11.21,9.16,9.16,0,0,0,2.22-2.3,9,9,0,0,1-2.55.7,4.5,4.5,0,0,0,1.95-2.46,8.87,8.87,0,0,1-2.82,1.08,4.45,4.45,0,0,0-7.57,4.05,12.56,12.56,0,0,1-9.12-4.63,4.43,4.43,0,0,0,1.37,5.92,4.53,4.53,0,0,1-2-.55,4.44,4.44,0,0,0,3.56,4.41,4.49,4.49,0,0,1-2,.07,4.45,4.45,0,0,0,4.15,3A8.94,8.94,0,0,1,579.47,255.38Z" fill="#fe705d" opacity="0.6" data-primary="true"/>
<g opacity="0.6">
<rect x="519.93" y="245.18" width="4.21" height="13.57" fill="#fe705d" data-primary="true"/>
<path d="M522,243.41a2.52,2.52,0,1,0-2.49-2.55v0a2.51,2.51,0,0,0,2.49,2.5Z" fill="#fe705d" data-primary="true"/>
<path d="M530.85,251.63c0-1.91.88-3,2.56-3s2.29,1.09,2.29,3v7.09h4.18V250.2c0-3.64-2-5.4-4.94-5.4a4.71,4.71,0,0,0-4.06,2.25v-1.84h-4v13.58h4Z" fill="#fe705d" data-primary="true"/>
</g>
<path d="M604.48,317.24h0a2.87,2.87,0,0,0-.76-.27h0a6.62,6.62,0,0,1-3.13-2.28,6.85,6.85,0,0,1-1.06-1.88h0a.87.87,0,0,1,0-.8h0a2.19,2.19,0,0,1,1.07-.69h0a4.18,4.18,0,0,0,1.45-.75h0a.79.79,0,0,0,.21-.27.17.17,0,0,0,0-.1.5.5,0,0,0,0-.38h0a1.11,1.11,0,0,0-.5-.48h0a1,1,0,0,0-.88-.08h0a6.25,6.25,0,0,1-.77.23h0a1.87,1.87,0,0,1-.88,0,.67.67,0,0,0,0-.2h0v-1.64h0a14.43,14.43,0,0,0-.06-2.63h0a5.86,5.86,0,0,0-2.47-3.66,6.16,6.16,0,0,0-3-1.07h0a10,10,0,0,0-1.1-.06,6.78,6.78,0,0,0-4.12,1.32,6.56,6.56,0,0,0-2,2.63h0a7.43,7.43,0,0,0-.32,3.21h0a16.48,16.48,0,0,1,0,2.11h0a2.86,2.86,0,0,1-1,0h0a5.26,5.26,0,0,1-.8-.23h0a1,1,0,0,0-.79.18h0a.77.77,0,0,0-.42.64v.06h0a.74.74,0,0,0,.26.43l.28.2h0a6.92,6.92,0,0,0,1.63.7h0a1.23,1.23,0,0,1,.73.7,2,2,0,0,1-.3,1.25h0a7.71,7.71,0,0,1-2.46,2.83,6.33,6.33,0,0,1-1.81.83h0a1,1,0,0,0-.65.37v.07a.55.55,0,0,0,.1.51.9.9,0,0,0,.27.21h0a5.94,5.94,0,0,0,1.69.58h0a7.09,7.09,0,0,1,1,.25l.1.3c.1.29.15.64.25,1a.31.31,0,0,0,.24.2.53.53,0,0,0,.39,0h0a6.57,6.57,0,0,1,2.65-.09h0a10.51,10.51,0,0,1,2.49,1.34h0a4.12,4.12,0,0,0,2,.73h0a15.69,15.69,0,0,0,1.68,0h0a3,3,0,0,0,1.33-.46h0c.9-.5,1.7-1.12,2.57-1.51h0a4.29,4.29,0,0,1,1-.12h0a14.28,14.28,0,0,1,2.17.11h.07a.4.4,0,0,0,.26-.14.35.35,0,0,0,.07-.15h0v-.06a3.09,3.09,0,0,1,.41-1.07A.67.67,0,0,1,602,319h0a8.44,8.44,0,0,0,1.72-.48h0a1.56,1.56,0,0,0,.71-.47h0a.51.51,0,0,0-.13-.69h0Z" fill="#fe705d" fill-rule="evenodd" opacity="0.6" data-primary="true"/>
<g opacity="0.6">
<path d="M436.45,122.83a2.23,2.23,0,0,1,.95,1,3.32,3.32,0,0,1,.34,1.58v3.89h-.83v-3.79a2.27,2.27,0,0,0-.55-1.65,1.9,1.9,0,0,0-1.47-.58,2.06,2.06,0,0,0-1.54.61,2.53,2.53,0,0,0-.57,1.79v3.62h-.85v-9h.85v3.49a2.23,2.23,0,0,1,.93-.92,3.05,3.05,0,0,1,2.74,0Z" fill="#fe705d" data-primary="true"/>
<path d="M440.74,123.35v4.12a1.14,1.14,0,0,0,.23.84,1.09,1.09,0,0,0,.81.23h.78v.73h-.91a1.55,1.55,0,0,1-1.78-1.8v-4.12H439v-.72h.92V121h.87v1.66h1.82v.72Z" fill="#fe705d" data-primary="true"/>
<path d="M445.07,123.35v4.12a1.14,1.14,0,0,0,.23.84,1.09,1.09,0,0,0,.81.23h.78v.73H446a1.55,1.55,0,0,1-1.78-1.8v-4.12h-.92v-.72h.92V121h.87v1.66h1.82v.72Z" fill="#fe705d" data-primary="true"/>
<path d="M450.13,123a2.92,2.92,0,0,1,1.64-.44,3.16,3.16,0,0,1,1.62.42,2.89,2.89,0,0,1,1.13,1.19,3.78,3.78,0,0,1,.41,1.79,3.85,3.85,0,0,1-.41,1.8,3,3,0,0,1-1.13,1.21,3.16,3.16,0,0,1-1.62.42,3,3,0,0,1-1.63-.44,2.7,2.7,0,0,1-1-1.12v4.6h-.84v-9.78h.84v1.46A2.71,2.71,0,0,1,450.13,123Zm3.61,1.53a2.3,2.3,0,0,0-.88-.92,2.5,2.5,0,0,0-1.26-.31,2.43,2.43,0,0,0-1.25.33,2.35,2.35,0,0,0-.89.93,2.94,2.94,0,0,0-.33,1.41,2.88,2.88,0,0,0,.33,1.41,2.31,2.31,0,0,0,.89.94,2.43,2.43,0,0,0,1.25.33,2.51,2.51,0,0,0,1.26-.32,2.29,2.29,0,0,0,.88-.94,3,3,0,0,0,.33-1.43A2.93,2.93,0,0,0,453.74,124.51Z" fill="#fe705d" data-primary="true"/>
<path d="M456.2,123.86a.61.61,0,0,1-.18-.45.61.61,0,0,1,.62-.62.57.57,0,0,1,.43.18.59.59,0,0,1,.18.44.61.61,0,0,1-.18.45.57.57,0,0,1-.43.18A.59.59,0,0,1,456.2,123.86Zm0,5.29a.61.61,0,0,1-.18-.45.61.61,0,0,1,.62-.62.57.57,0,0,1,.43.18.59.59,0,0,1,.18.44.61.61,0,0,1-.18.45.57.57,0,0,1-.43.18A.59.59,0,0,1,456.2,129.15Z" fill="#fe705d" data-primary="true"/>
<path d="M462.53,117.84l-3.36,13.45h-.84l3.34-13.45Z" fill="#fe705d" data-primary="true"/>
<path d="M467.89,117.84l-3.35,13.45h-.84L467,117.84Z" fill="#fe705d" data-primary="true"/>
<path d="M478.23,122.63l-2.08,6.64h-.85l-1.84-5.57-1.83,5.57h-.87l-2.08-6.64h.87l1.65,5.78,1.86-5.78h.85l1.84,5.79,1.64-5.79Z" fill="#fe705d" data-primary="true"/>
<path d="M488.14,122.63l-2.08,6.64h-.85l-1.84-5.57-1.83,5.57h-.87l-2.08-6.64h.87l1.65,5.78,1.86-5.78h.85l1.84,5.79,1.64-5.79Z" fill="#fe705d" data-primary="true"/>
<path d="M498.05,122.63,496,129.27h-.85l-1.84-5.57-1.83,5.57h-.87l-2.07-6.64h.86l1.65,5.78,1.86-5.78h.85l1.84,5.79,1.64-5.79Z" fill="#fe705d" data-primary="true"/>
<path d="M498.91,129.15a.61.61,0,0,1-.18-.45.61.61,0,0,1,.62-.62.57.57,0,0,1,.43.18.59.59,0,0,1,.18.44.61.61,0,0,1-.18.45.57.57,0,0,1-.43.18A.59.59,0,0,1,498.91,129.15Z" fill="#fe705d" data-primary="true"/>
<path d="M501.12,129.15a.6.6,0,0,1-.17-.45.58.58,0,0,1,.17-.44.61.61,0,0,1,.45-.18.6.6,0,0,1,.6.62.6.6,0,0,1-.17.45.58.58,0,0,1-.43.18A.61.61,0,0,1,501.12,129.15Z" fill="#fe705d" data-primary="true"/>
<path d="M503.34,129.15a.61.61,0,0,1-.18-.45.59.59,0,0,1,.18-.44.57.57,0,0,1,.44-.18.58.58,0,0,1,.43.18.59.59,0,0,1,.18.44.61.61,0,0,1-.18.45.58.58,0,0,1-.43.18A.57.57,0,0,1,503.34,129.15Z" fill="#fe705d" data-primary="true"/>
</g>
<path d="M334.49,655.17s1.15,2.39-2.36,2.67h-22.2s-4.36-.38-6.46-1.52l4.77-4.1Z" fill="#2f2e41" data-secondary="true"/>
<path d="M334.49,655.17s1.15,2.39-2.36,2.67h-22.2s-4.36-.38-6.46-1.52l4.77-4.1Z" opacity="0.2"/>
<path d="M320.26,647s21.28,8.22,11.8,8.85c0,0-19.6,1.69-26.56-1l-5.9-8.85Z" fill="#fe705d" data-primary="true"/>
<path d="M320.26,647s21.28,8.22,11.8,8.85c0,0-19.6,1.69-26.56-1l-5.9-8.85Z" opacity="0.2"/>
<path d="M314.14,623.14S318.78,644,320.26,647c0,0,2.1,3.68-2.32,3.32,0,0-9.67-.3-13.79-.16l-12.77-20.44L296,569.61,298.76,531H325.1S306.77,601.43,314.14,623.14Z" fill="#f7a48b"/>
<path d="M306.91,656.32l-10.56,5.1a3.61,3.61,0,0,1-2.7.18l-17.78-5.89a1.73,1.73,0,0,1-.94-2.53l1-1.62,29.6,3.19Z" fill="#2f2e41" data-secondary="true"/>
<path d="M331.71,69.25s-10-23.7-35.33-4.42c0,0-8,3.61-16.47,17.67a271.35,271.35,0,0,1-26.5,32.12l-31.32,32.93S200,164.41,205.63,189.31c0,0,1.2-9.24,6.42-13.65,0,0-4.82,50.19,32.53,59.43,0,0,17.85,18.07,43.66,18.07l49.09-79.91V164s5.63-40.55,11.25-57c0,0,4.82-4,0-13.25l-7.76-18.15S337.78,66.84,331.71,69.25Z" fill="#2f2e41" data-secondary="true"/>
<path d="M288.24,253.16s-1.88-31.52,3.41-50.09,4.65-86.59,4.65-86.59l-5.68-7.65-3.27,5.69s-1.05,4.68-11.86,15.92q-2,2.09-4.13,4.05c-6.5,6-40.25,40.52-26.78,100.6A65.19,65.19,0,0,0,288.24,253.16Z" opacity="0.2"/>
<polygon points="326.48 140.55 326.48 169.31 308.79 160.93 308.28 134.18 326.48 140.55" opacity="0.2"/>
<path d="M374.35,219l-4.61,17L361,219l-12.91,13.85s12.18,26.48,17.77,26.48c0,0,3.89.47,5.83,2.18,0,0,6.8,3.4,10-9.47l6.83-29.59S378.48,221.4,374.35,219Z" fill="#f7a48b"/>
<path d="M388.47,222.42s7.77-6.59,6.92-21.16a5.36,5.36,0,0,1,1-3.46c.84-1.16,1.83-3.49,1.89-8a4.37,4.37,0,0,0-3.85-4.44,5.51,5.51,0,0,0-2.06.17s-3.64-3-7.29-.2c0,0-3.64-3.65-8.26.2,0,0-5.34-2-6.07,3.11a4.15,4.15,0,0,0,1.46,3.16s-2.07.27-2.6,1.43c0,0-2.09-3.26-4.07-1.65a1.46,1.46,0,0,0-.52,1.38,67.21,67.21,0,0,1,.83,8.09,21.87,21.87,0,0,0,3,10.57,17.25,17.25,0,0,0,4.2,5.11s1.62,1.12,1.3,2.28C374.35,219,378.39,221.61,388.47,222.42Z" fill="#f7a48b"/>
<polygon points="401.41 248.94 413.55 202.14 394.09 208.5 384.65 255.88 401.41 248.94" fill="#fe705d" data-primary="true"/>
<polygon points="408.73 200.35 413.55 202.14 394.09 208.5 384.65 255.88 381.01 254.24 392.32 206.14 408.73 200.35" fill="#2f2e41" data-secondary="true"/>
<ellipse cx="402.94" cy="216.38" rx="3.23" ry="2.11" transform="translate(114.49 571.31) rotate(-79.13)" fill="#fff"/>
<polygon points="352.46 253.16 355.22 261.89 332.21 268.2 301.03 267.05 298.22 257.24 352.46 253.16" fill="#fe705d" data-primary="true"/>
<polygon points="332.21 268.2 329.46 254.89 298.22 257.24 301.03 267.05 332.21 268.2" fill="#fff" opacity="0.2"/>
<path d="M272.69,475.61l5.41,40.26,3.17,23.53c.14,4.07,2.85,3.44,2.85,3.44,5.44.67,15.34-1.78,24.66-4.72,11.72-3.69,22.54-8.15,22.54-8.15.92-15.63,14.71-97.45,14.71-97.45,5.2-25.74,15.82-91,15.82-91,7-32.18,1.64-49.32,1.64-49.32l-8.27-30.29-23,6.32-23.94-.89L301,267l-10.41,7.08a17,17,0,0,0-7.81,10.12c-2.63,6.28-5.27,23.8-6.53,33.1a47.39,47.39,0,0,0-.15,11.66l5,45.16,6.47,54.52c2.81,9.83-13.21,40.18-13.21,40.18A10.19,10.19,0,0,0,272.69,475.61Z" fill="#2f2e41" data-secondary="true"/>
<path d="M272.69,475.61l5.41,40.26V481c.07-9.56,15.67-41,15.67-41,7.59-11,2-37.5,2-37.5l-10.14-52.71c-1.4-20.23,3.09-53.11,3.09-53.11,0-11.92,10.8-22.65,15.41-26.69a15.39,15.39,0,0,1,4.16-2.6L301,267l-10.41,7.08a17,17,0,0,0-7.81,10.12c-2.63,6.28-5.27,23.8-6.53,33.1a47.39,47.39,0,0,0-.15,11.66l5,45.16,6.47,54.52c2.81,9.83-13.21,40.18-13.21,40.18A10.19,10.19,0,0,0,272.69,475.61Z" opacity="0.2"/>
<path d="M393.53,455.09l-16-17.42-3-37.31s6.39-33.78-13.56-70L350.53,309l-4.21-20.51s29,44.11,35.28,67.16c0,0,5.27,13.63,2.74,35.73A78.36,78.36,0,0,0,384,404C384.57,416.5,386.64,440.91,393.53,455.09Z" fill="#fe705d" data-primary="true"/>
<path d="M372.17,191.76s5.67,7.92,4,10.38l-1.84,3.74s-1.47-.28-2.14-3.74l-2.6-8.95S369.88,191.6,372.17,191.76Z" fill="#f9b499"/>
<path d="M392.33,185.49s5,6-1,13.32" fill="none" stroke="#f9b499" stroke-miterlimit="10"/>
<path d="M385,185.29s6.15,5,0,14.25" fill="none" stroke="#f9b499" stroke-miterlimit="10"/>
<path d="M376.78,185.49l7.78,20a3,3,0,0,1-.7,3.28c-.86.76-2.23,1-4.33-1l-3.38-5.64" fill="none" stroke="#f9b499" stroke-miterlimit="10"/>
<path d="M356.27,224.85s5.79-4.12,8.6-10c0,0-9-7.87-18.27-29.34,0,0-5.29-11.26-8.23-11.26l-2,6.53,14.24,44.09Z" fill="#fe705d" data-primary="true"/>
<path d="M356.27,224.85s5.79-4.12,8.6-10c0,0-9-7.87-18.27-29.34,0,0-5.29-11.26-8.23-11.26l-2,6.53,14.24,44.09Z" opacity="0.2"/>
<path d="M308.9,159.68s28.64,10.75,31,16.44a23.19,23.19,0,0,1,.9,4.73,37.91,37.91,0,0,0,4.65,15.38,31.16,31.16,0,0,0,5.31,7.08s18.64,15.6-2.64,29.51c0,0,1.05,8.43.63,11.8H298.13L257.25,167.3s5.61-7.9,32.26-11.22Z" fill="#fe705d" data-primary="true"/>
<path d="M357.82,214.31s3.53,10.5-9.74,18.51c0,0-26.76-4.62-50.27,4.75l-10.18-20.63-2.93-12.08s14.9,17.84,27.69,14.49c1-.26,2-.67,3.06-.87A252.87,252.87,0,0,1,357.82,214.31Z" fill="#fff" opacity="0.2"/>
<path d="M310.4,143.64l-1.62,17.29,9.29,5.11a14.88,14.88,0,0,1,6.5,7.09c2.1,4.81,3.82,11.48-2.55,11.94,0,0-10.1,4-27.87-12.57l-14.46-12.9,8.21-2.15a2.42,2.42,0,0,0,1.81-2.14l3.09-34.24Z" fill="#f9b499"/>
<path d="M310.4,143.64l-.79,8.48a36.33,36.33,0,0,1-18-18.36l1.15-12.69Z" fill="#f7a48b"/>
<ellipse cx="318.15" cy="108.83" rx="35.68" ry="26.97" transform="translate(131.08 388.23) rotate(-75.08)" fill="#f9b499"/>
<path d="M344.28,92.87s-1.9-2.11-6.95-3.79c0,0-7.59-11.8-17.71-4.85,0,0-10,11.34-20,11.6l-5.45,12-5.91-12-.89,18.69-18.94-9.3,6.74-12.14L297.49,77.7,313.3,64.63l23.61,10.12S345.13,81.91,344.28,92.87Z" fill="#2f2e41" data-secondary="true"/>
<ellipse cx="288.24" cy="105.22" rx="5.91" ry="9.4" fill="#f9b499"/>
<polygon points="290.62 216.73 268.54 227.32 270.83 214.58 281.45 209.16 290.62 216.73" fill="#fe705d" data-primary="true"/>
<polygon points="290.62 216.73 268.54 227.32 270.83 214.58 281.45 209.16 290.62 216.73" opacity="0.4"/>
<path d="M290.62,216.73s-12.36-24.38-16.07-33.56c0,0-6.55-19.58-16.26-16.32,0,0-8.34,2.14-6.54,17.65a44.16,44.16,0,0,0,3.5,12.65l13.29,30.17A28.73,28.73,0,0,1,290.62,216.73Z" fill="#fe705d" data-primary="true"/>
<path d="M255.25,197.15l13.29,30.17A25.1,25.1,0,0,1,279.69,219s-6.38-2.28-15.74-17.82c0,0-11.28-19.92-6.7-33.89C257.25,167.3,245.85,172.28,255.25,197.15Z" opacity="0.2"/>
<path d="M270.76,224.85l16.55,32.69s.92,3.66,15.77,3.94c0,0,32.84-1.13,66.28-9.84L387.91,250s10.11-.28,12.92-9.56a21.09,21.09,0,0,0,8.58-15.55s-.43-2.57-4.78-.75l-6.18,7.31H385.66s-1.69-3.09,2.81-9c0,0,6.46-2.81,3.65-8.57,0,0-2.81-6.33-4.07-1.83,0,0-2.67,9-6.75,10.4,0,0-12.78,3-12.5,11,0,0,.42,4.77-3.09,5.34,0,0-40.4,5.05-65.9,2.31l-12.18-24.09S276.91,217.73,270.76,224.85Z" fill="#f9b499"/>
<path d="M341.72,265.59s5.81,18.93,9,33c0,0,5.16,23.78,6.12,39.32a63.57,63.57,0,0,0,1.64,10.81c2,8.3,5.65,22.63,8.35,29.4l9,26.13s5.9,14,4.49,36l-1.68,30.07-11-15.74s5.34-33.16,1.4-43.55l-15.17-41.59a164.69,164.69,0,0,1-9.56-59S342,272.42,336.44,267Z" fill="#fe705d" data-primary="true"/>
<path d="M341.72,265.59s5.81,18.93,9,33c0,0,5.16,23.78,6.12,39.32a63.57,63.57,0,0,0,1.64,10.81c2,8.3,5.65,22.63,8.35,29.4l9,26.13s5.9,14,4.49,36l-1.68,30.07-11-15.74s5.34-33.16,1.4-43.55l-15.17-41.59a164.69,164.69,0,0,1-9.56-59S342,272.42,336.44,267Z" fill="#fff" opacity="0.2"/>
<path d="M278.1,647.16c9.59,4.12,26,3,26,3l-2.65-35.4a30,30,0,0,0-1.36-10.33c-3.46-24.22,8.64-66.26,8.64-66.26-9.32,2.94-19.22,5.39-24.66,4.72-.27,10.5,2.88,44.14,3.48,50.36a5.24,5.24,0,0,1-.17,1.89c-1.47,5.19-1.19,7.95-.78,9.28a9.66,9.66,0,0,1,.43,3.46C286.15,621.63,278.1,647.16,278.1,647.16Z" fill="#f9b499"/>
<path d="M278.1,647.16l-2.2,4.4a1.36,1.36,0,0,0,.76,1.88l17.13,6.11a2.71,2.71,0,0,0,2.16-.13l10.35-5.17a1.1,1.1,0,0,0,.28-1.77l-2.43-2.37S289.41,651.52,278.1,647.16Z" fill="#fe705d" data-primary="true"/>
<g id="ab0d6bad-1306-47e9-9029-593194e08d7b" data-name="freepik--Plant--inject-88">
<polyline points="475.09 646.41 466.1 589.92 535.05 590.77 528.26 645.68" fill="#2f2e41" data-secondary="true"/>
<path d="M504.85,579.61a11.72,11.72,0,0,0,11.49,1,12.38,12.38,0,0,0,6.26-9.89,14,14,0,0,0-11.48-.57,13.8,13.8,0,0,0-7.6,8.5" fill="#fe705d" data-primary="true"/>
<path d="M536.37,591.77a11.74,11.74,0,0,0,11.49,1,12.38,12.38,0,0,0,6.26-9.9,14,14,0,0,0-11.49-.57,13.88,13.88,0,0,0-7.61,8.5" fill="#fe705d" data-primary="true"/>
<path d="M518.68,564.61a11.76,11.76,0,0,0,9,7.1,12.42,12.42,0,0,0,10.68-4.82A13.23,13.23,0,0,0,518.14,563" fill="#fe705d" data-primary="true"/>
<path d="M530.18,578.68a11.79,11.79,0,0,0-10.29,5.1,12.35,12.35,0,0,0-.23,11.7,13.23,13.23,0,0,0,12.61-13.82,14.05,14.05,0,0,0-.43-2.8" fill="#fe705d" data-primary="true"/>
<path d="M541.3,600.92a11.73,11.73,0,0,0,.27,11.49,12.35,12.35,0,0,0,10.51,5.15,14,14,0,0,0-.66-11.41c-1.81-3.31-5.07-4.93-9.16-5.86" fill="#fe705d" data-primary="true"/>
<path d="M559.62,603.53a7.83,7.83,0,0,0-2.73-1.73,11.58,11.58,0,0,0-3.73-.66,43.36,43.36,0,0,0-5.1.3,14.74,14.74,0,0,1-6.26-.55,9.55,9.55,0,0,1-5.17-5,27.79,27.79,0,0,1-2.22-7.62,22.44,22.44,0,0,0-2.66-7.83,28.3,28.3,0,0,0-5.84-5.93,28.45,28.45,0,0,1-5.58-5.65,18.8,18.8,0,0,1-2.78-12.93,18,18,0,0,1,3.39-8.34,12.39,12.39,0,0,1,1.65-1.82,3.91,3.91,0,0,1,.66-.56,3.86,3.86,0,0,1-.55.66,17.22,17.22,0,0,0-1.52,1.89,18.92,18.92,0,0,0-.29,20.77,28.5,28.5,0,0,0,5.49,5.48,27.68,27.68,0,0,1,6,6.09,22.34,22.34,0,0,1,2.75,8.08,27.78,27.78,0,0,0,2.14,7.47,9,9,0,0,0,4.77,4.72,14.43,14.43,0,0,0,6,.59,44,44,0,0,1,5.14-.18,11.21,11.21,0,0,1,3.83.8,6.41,6.41,0,0,1,2.07,1.34,3.28,3.28,0,0,1,.43.48C559.59,603.46,559.63,603.52,559.62,603.53Z" fill="#fe705d" data-primary="true"/>
<path d="M559.62,603.53a7.83,7.83,0,0,0-2.73-1.73,11.58,11.58,0,0,0-3.73-.66,43.36,43.36,0,0,0-5.1.3,14.74,14.74,0,0,1-6.26-.55,9.55,9.55,0,0,1-5.17-5,27.79,27.79,0,0,1-2.22-7.62,22.44,22.44,0,0,0-2.66-7.83,28.3,28.3,0,0,0-5.84-5.93,28.45,28.45,0,0,1-5.58-5.65,18.8,18.8,0,0,1-2.78-12.93,18,18,0,0,1,3.39-8.34,12.39,12.39,0,0,1,1.65-1.82,3.91,3.91,0,0,1,.66-.56,3.86,3.86,0,0,1-.55.66,17.22,17.22,0,0,0-1.52,1.89,18.92,18.92,0,0,0-.29,20.77,28.5,28.5,0,0,0,5.49,5.48,27.68,27.68,0,0,1,6,6.09,22.34,22.34,0,0,1,2.75,8.08,27.78,27.78,0,0,0,2.14,7.47,9,9,0,0,0,4.77,4.72,14.43,14.43,0,0,0,6,.59,44,44,0,0,1,5.14-.18,11.21,11.21,0,0,1,3.83.8,6.41,6.41,0,0,1,2.07,1.34,3.28,3.28,0,0,1,.43.48C559.59,603.46,559.63,603.52,559.62,603.53Z" fill="#fe705d" data-primary="true"/>
<path d="M428,609.32a17.45,17.45,0,0,0-23.61-17.23,29.09,29.09,0,0,0,23,17" fill="#fe705d" data-primary="true"/>
<path d="M423.43,611.72c-3.38,3.7-3.16,9.66-.75,14.06s6.56,7.5,10.72,10.29a22.63,22.63,0,0,0-9.74-25.7" fill="#fe705d" data-primary="true"/>
<path d="M439.77,594.36a20.09,20.09,0,0,0,22,18c.29,0,.57-.06.86-.1-1.31-5.43-3.48-10.88-7.67-14.56s-10.8-5.05-15.42-2" fill="#fe705d" data-primary="true"/>
<path d="M439.62,588.83c-.84-4.94-5.74-8.52-10.7-9s-9.9,1.67-13.89,4.68A18.08,18.08,0,0,0,439.68,587" fill="#fe705d" data-primary="true"/>
<path d="M414,630.8c-4.74,4-5.91,11.24-3.95,17.15s6.58,10.61,11.75,14.07c2-5.86,3.24-12.14,2.2-18.24s-4.73-12-10.38-14.46" fill="#fe705d" data-primary="true"/>
<path d="M438.89,575a14.54,14.54,0,0,1,20.22-3.8,14.24,14.24,0,0,1,2.75,2.45,12.56,12.56,0,0,1-22.68.57" fill="#fe705d" data-primary="true"/>
<path d="M444.69,560.76a18.93,18.93,0,0,1-23.6-12.62,18,18,0,0,1-.52-2.17,42.11,42.11,0,0,1,11.38.16,18.5,18.5,0,0,1,10.06,5,10.09,10.09,0,0,1,2.64,9.67" fill="#fe705d" data-primary="true"/>
<path d="M455.63,557.07a15.49,15.49,0,0,1-2.16-21.79,16.19,16.19,0,0,1,2.06-2.08,32.51,32.51,0,0,1,6.76,14.43,12,12,0,0,1,0,6,5.47,5.47,0,0,1-4.16,3.91" fill="#fe705d" data-primary="true"/>
<g opacity="0.4">
<path d="M428,609.32a17.45,17.45,0,0,0-23.61-17.23,29.09,29.09,0,0,0,23,17"/>
</g>
<g opacity="0.4">
<path d="M423.43,611.72c-3.38,3.7-3.16,9.66-.75,14.06s6.56,7.5,10.72,10.29a22.63,22.63,0,0,0-9.74-25.7"/>
</g>
<g opacity="0.4">
<path d="M439.77,594.36a20.09,20.09,0,0,0,22,18c.29,0,.57-.06.86-.1-1.31-5.43-3.48-10.88-7.67-14.56s-10.8-5.05-15.42-2"/>
</g>
<g opacity="0.4">
<path d="M439.62,588.83c-.84-4.94-5.74-8.52-10.7-9s-9.9,1.67-13.89,4.68A18.08,18.08,0,0,0,439.68,587"/>
</g>
<g opacity="0.4">
<path d="M414,630.8c-4.74,4-5.91,11.24-3.95,17.15s6.58,10.61,11.75,14.07c2-5.86,3.24-12.14,2.2-18.24s-4.73-12-10.38-14.46"/>
</g>
<g opacity="0.4">
<path d="M438.89,575a14.54,14.54,0,0,1,20.22-3.8,14.24,14.24,0,0,1,2.75,2.45,12.56,12.56,0,0,1-22.68.57"/>
</g>
<g opacity="0.4">
<path d="M444.69,560.76a18.93,18.93,0,0,1-23.6-12.62,18,18,0,0,1-.52-2.17,42.11,42.11,0,0,1,11.38.16,18.5,18.5,0,0,1,10.06,5,10.09,10.09,0,0,1,2.64,9.67"/>
</g>
<g opacity="0.4">
<path d="M455.63,557.07a15.49,15.49,0,0,1-2.16-21.79,16.19,16.19,0,0,1,2.06-2.08,32.51,32.51,0,0,1,6.76,14.43,12,12,0,0,1,0,6,5.47,5.47,0,0,1-4.16,3.91"/>
</g>
<path d="M474.54,591.74a1.21,1.21,0,0,1,0-.38,7.17,7.17,0,0,1,.07-1.14c0-1,.16-2.47.19-4.31a39.1,39.1,0,0,0-2.55-15.66,24,24,0,0,0-6.31-8.87,16.83,16.83,0,0,0-11.48-4.23,14.42,14.42,0,0,0-6.47,1.63,12.62,12.62,0,0,0-5,4.76c-2.5,4.14-3.13,9.31-2.88,14.36s.91,10.23.35,15.17a23.82,23.82,0,0,1-1.9,7,14.62,14.62,0,0,1-4.3,5.55,21.4,21.4,0,0,1-5.92,3,30.71,30.71,0,0,0-5.57,2.53,20.11,20.11,0,0,0-7.31,8,19.3,19.3,0,0,0-2.11,8.72,20.3,20.3,0,0,0,1.11,6.73,23.74,23.74,0,0,0,2.61,5.24,1.79,1.79,0,0,1-.26-.29,8.68,8.68,0,0,1-.66-.93,17.56,17.56,0,0,1-2-3.92,20.18,20.18,0,0,1-1.25-6.83,19.6,19.6,0,0,1,2.06-9,20.68,20.68,0,0,1,7.45-8.26c3.42-2.27,7.91-2.87,11.39-5.56s5.29-7.39,5.83-12.13-.18-9.85-.36-15.05.38-10.51,3-14.82a13.47,13.47,0,0,1,5.3-5,15,15,0,0,1,6.78-1.68,17.42,17.42,0,0,1,11.89,4.43,24.5,24.5,0,0,1,6.39,9.14,33.1,33.1,0,0,1,2.16,8.94,48.73,48.73,0,0,1,.19,6.94,33.59,33.59,0,0,1-.33,4.38,6.92,6.92,0,0,1-.14,1.12A1.2,1.2,0,0,1,474.54,591.74Z" fill="#fe705d" data-primary="true"/>
<g opacity="0.4">
<path d="M474.54,591.74a1.21,1.21,0,0,1,0-.38,7.17,7.17,0,0,1,.07-1.14c0-1,.16-2.47.19-4.31a39.1,39.1,0,0,0-2.55-15.66,24,24,0,0,0-6.31-8.87,16.83,16.83,0,0,0-11.48-4.23,14.42,14.42,0,0,0-6.47,1.63,12.62,12.62,0,0,0-5,4.76c-2.5,4.14-3.13,9.31-2.88,14.36s.91,10.23.35,15.17a23.82,23.82,0,0,1-1.9,7,14.62,14.62,0,0,1-4.3,5.55,21.4,21.4,0,0,1-5.92,3,30.71,30.71,0,0,0-5.57,2.53,20.11,20.11,0,0,0-7.31,8,19.3,19.3,0,0,0-2.11,8.72,20.3,20.3,0,0,0,1.11,6.73,23.74,23.74,0,0,0,2.61,5.24,1.79,1.79,0,0,1-.26-.29,8.68,8.68,0,0,1-.66-.93,17.56,17.56,0,0,1-2-3.92,20.18,20.18,0,0,1-1.25-6.83,19.6,19.6,0,0,1,2.06-9,20.68,20.68,0,0,1,7.45-8.26c3.42-2.27,7.91-2.87,11.39-5.56s5.29-7.39,5.83-12.13-.18-9.85-.36-15.05.38-10.51,3-14.82a13.47,13.47,0,0,1,5.3-5,15,15,0,0,1,6.78-1.68,17.42,17.42,0,0,1,11.89,4.43,24.5,24.5,0,0,1,6.39,9.14,33.1,33.1,0,0,1,2.16,8.94,48.73,48.73,0,0,1,.19,6.94,33.59,33.59,0,0,1-.33,4.38,6.92,6.92,0,0,1-.14,1.12A1.2,1.2,0,0,1,474.54,591.74Z"/>
</g>
<path d="M575,579.42a15.06,15.06,0,0,0,1-5,12.59,12.59,0,0,0-1.35-5.84A12.17,12.17,0,0,0,569,563.1a12.41,12.41,0,0,0-4.43-1.19,14.6,14.6,0,0,0-5,.57c-3.37.89-6.72,2.87-10.72,3.6a12.63,12.63,0,0,1-6.2-.14,9.34,9.34,0,0,1-5.07-4.05c-2.42-3.73-3.09-8.43-6-11.86a11.65,11.65,0,0,0-5.44-3.56,15.4,15.4,0,0,0-6.36-.65,16.24,16.24,0,0,0-10.58,5.5A24.78,24.78,0,0,0,504,561a29.36,29.36,0,0,0-1.17,9.64,102.8,102.8,0,0,0,1.79,14.09l.65,3.82a5.48,5.48,0,0,0,.15,1,1.93,1.93,0,0,1,0,.34,1,1,0,0,0-.1-.33l-.23-1c-.18-.93-.45-2.19-.79-3.79a94.68,94.68,0,0,1-2-14.13,29.36,29.36,0,0,1,1.1-9.82,25.39,25.39,0,0,1,5.34-10,19.31,19.31,0,0,1,4.84-3.88,16.73,16.73,0,0,1,12.85-1.23,12.6,12.6,0,0,1,5.75,3.79c3.07,3.69,3.73,8.4,6,12a8.65,8.65,0,0,0,4.67,3.76,12,12,0,0,0,5.86.16c3.85-.74,7.18-2.63,10.69-3.52a14.77,14.77,0,0,1,5.16-.56,12.61,12.61,0,0,1,4.62,1.29,12.43,12.43,0,0,1,7,11.75,11.67,11.67,0,0,1-.74,3.82A6.33,6.33,0,0,1,575,579.42Z" fill="#fe705d" data-primary="true"/>
<path d="M534.62,554.4a13.47,13.47,0,0,0,12.31.8,12.45,12.45,0,0,0,6.26-9.89,14.13,14.13,0,0,0-11.49-.59,13.94,13.94,0,0,0-7.6,8.5" fill="#fe705d" data-primary="true"/>
<path d="M547.7,566.26a13.36,13.36,0,0,0,5.75,10.91,12.37,12.37,0,0,0,11.71.2,14.09,14.09,0,0,0-5.45-10,13.91,13.91,0,0,0-11.22-2.05" fill="#fe705d" data-primary="true"/>
<path d="M570.37,563.63a13.44,13.44,0,0,0,12.32-.52,12.33,12.33,0,0,0,5.17-10.49,13.21,13.21,0,0,0-17.27,7.16,12.39,12.39,0,0,0-.8,2.73" fill="#fe705d" data-primary="true"/>
<path d="M515.58,546.54c-3.3-2.87-5.53-7.85-4.9-11.6a12.44,12.44,0,0,1,7.61-8.92,14.14,14.14,0,0,1,3.94,10.74,14,14,0,0,1-5.87,9.78" fill="#fe705d" data-primary="true"/>
<path d="M427,530.3a.81.81,0,0,1,.13-.3l.46-.85c.41-.73,1.06-1.79,2-3.11a33.69,33.69,0,0,1,9.87-9.34,24.58,24.58,0,0,1,8.86-3.24,21.86,21.86,0,0,1,10.75,1.13,17.54,17.54,0,0,1,9.21,7.53c2.11,3.69,2.78,8,4,12.17a22.15,22.15,0,0,0,2.57,5.75,17.59,17.59,0,0,0,4.38,4.31c1.63,1.2,3.36,2.31,4.92,3.57a21.57,21.57,0,0,1,4,4.31,26.56,26.56,0,0,1,4.09,10,35,35,0,0,1,.55,9.42,71.38,71.38,0,0,1-2.4,13.38c-.42,1.55-.76,2.76-1,3.56a8.29,8.29,0,0,1-.4,1.22,6.85,6.85,0,0,1,.25-1.26c.21-.88.49-2.08.85-3.59a77.42,77.42,0,0,0,2.17-13.35,35,35,0,0,0-.63-9.25,26.12,26.12,0,0,0-4.07-9.75,20.48,20.48,0,0,0-3.87-4.18c-1.52-1.23-3.25-2.31-4.91-3.55a18.35,18.35,0,0,1-4.57-4.48,22.71,22.71,0,0,1-2.66-6c-1.25-4.22-1.93-8.48-4-12a16.83,16.83,0,0,0-8.8-7.26A21.53,21.53,0,0,0,448.42,514a23.49,23.49,0,0,0-8.61,3.09,34.49,34.49,0,0,0-9.91,9c-1,1.28-1.64,2.31-2.1,3A10.59,10.59,0,0,1,427,530.3Z" fill="#fe705d" data-primary="true"/>
<path d="M481.26,545.49c-1.13-1.06-1.69-.31-3.23,0a9.45,9.45,0,0,0-4.13,2.07,17.45,17.45,0,0,0-5.66,18.31,13.62,13.62,0,0,0,12.43-20.48" fill="#fe705d" data-primary="true"/>
<path d="M434.34,524.16c-.58-1.44-1.44-1-2.87-1.44a9.55,9.55,0,0,0-4.63.09,17.47,17.47,0,0,0-12.92,14.08,13.62,13.62,0,0,0,20-13" fill="#fe705d" data-primary="true"/>
<path d="M491.52,574.36a15.79,15.79,0,0,0-22.29-1.45,15.52,15.52,0,0,0-2.41,2.65,19.46,19.46,0,0,0,12.81,5.06,19.89,19.89,0,0,0,12.92-5.22" fill="#fe705d" data-primary="true"/>
<path d="M487.67,552.8a15.91,15.91,0,0,0,16.38-15.42,16.4,16.4,0,0,0-.3-3.57,14.35,14.35,0,0,0-16.61,18.83" fill="#fe705d" data-primary="true"/>
<path d="M471.21,527.46a15.93,15.93,0,0,0,21.54-12.58,14.29,14.29,0,0,0-21.93,12.25" fill="#fe705d" data-primary="true"/>
<path d="M465.64,519.19A15.94,15.94,0,0,0,445,528.28a15.76,15.76,0,0,0-.92,3.49,14.36,14.36,0,0,0,22-12.22" fill="#fe705d" data-primary="true"/>
<path d="M459.06,514.72a15.93,15.93,0,0,0,8.48-23.4,14.36,14.36,0,0,0-9,23.45" fill="#fe705d" data-primary="true"/>
<path d="M442.16,515.54a15.93,15.93,0,0,0-12.92-21.24A14.29,14.29,0,0,0,441.92,516" fill="#fe705d" data-primary="true"/>
<polygon points="465.21 639.86 470.49 646.41 535.4 646.41 539.82 639.86 465.21 639.86" fill="#2f2e41" data-secondary="true"/>
<polygon points="465.21 639.86 470.49 646.41 535.4 646.41 539.82 639.86 465.21 639.86" opacity="0.2"/>
</g>
</svg>